HIERARCHY
ROOT hip
{
  OFFSET 0 0 0
  CHANNELS 6 Xposition Yposition Zposition Zrotation Yrotation Xrotation
  JOINT abdomen
  {
    OFFSET 0 20.6881 -0.73152
    CHANNELS 3 Zrotation Xrotation Yrotation
    JOINT chest
    {
      OFFSET 0 11.7043 -0.48768
      CHANNELS 3 Zrotation Xrotation Yrotation
      JOINT neck
      {
        OFFSET 0 22.1894 -2.19456
        CHANNELS 3 Zrotation Xrotation Yrotation
        JOINT head
        {
          OFFSET -0.24384 7.07133 1.2192
          CHANNELS 3 Zrotation Xrotation Yrotation
          JOINT leftEye
          {
            OFFSET 4.14528 8.04674 8.04672
            CHANNELS 3 Zrotation Xrotation Yrotation
            End Site
            {
              OFFSET 1 0 0
            }
          }
          JOINT rightEye
          {
            OFFSET -3.6576 8.04674 8.04672
            CHANNELS 3 Zrotation Xrotation Yrotation
            End Site
            {
              OFFSET 1 0 0
            }
          }
        }
      }
      JOINT rCollar
      {
        OFFSET -2.68224 19.2634 -4.8768
        CHANNELS 3 Zrotation Xrotation Yrotation
        JOINT rShldr
        {
          OFFSET -8.77824 -1.95073 1.46304
          CHANNELS 3 Zrotation Xrotation Yrotation
          JOINT rForeArm
          {
            OFFSET -28.1742 -1.7115 0.48768
            CHANNELS 3 Zrotation Xrotation Yrotation
            JOINT rHand
            {
              OFFSET -22.5879 0.773209 7.07136
              CHANNELS 3 Zrotation Xrotation Yrotation
              JOINT rThumb1
              {
                OFFSET -1.2192 -0.487915 3.41376
                CHANNELS 3 Zrotation Xrotation Yrotation
                JOINT rThumb2
                {
                  OFFSET -3.37035 -0.52449 3.41376
                  CHANNELS 3 Zrotation Xrotation Yrotation
                  End Site
                  {
                    OFFSET -1.78271 -1.18214 1.43049
                  }
                }
              }
              JOINT rIndex1
              {
                OFFSET -7.75947 0.938293 5.60832
                CHANNELS 3 Zrotation Xrotation Yrotation
                JOINT rIndex2
                {
                  OFFSET -2.54057 -0.884171 1.56538
                  CHANNELS 3 Zrotation Xrotation Yrotation
                  End Site
                  {
                    OFFSET -1.62519 -0.234802 1.16502
                  }
                }
              }
              JOINT rMid1
              {
                OFFSET -8.24714 1.18213 3.41376
                CHANNELS 3 Zrotation Xrotation Yrotation
                JOINT rMid2
                {
                  OFFSET -3.10165 -0.590103 1.0647
                  CHANNELS 3 Zrotation Xrotation Yrotation
                  End Site
                  {
                    OFFSET -2.48547 -0.328903 0.83742
                  }
                }
              }
              JOINT rRing1
              {
                OFFSET -8.82822 0.546677 1.51678
                CHANNELS 3 Zrotation Xrotation Yrotation
                JOINT rRing2
                {
                  OFFSET -2.60934 -0.819778 -0.0198488
                  CHANNELS 3 Zrotation Xrotation Yrotation
                  End Site
                  {
                    OFFSET -2.33842 -0.294052 0.168128
                  }
                }
              }
              JOINT rPinky1
              {
                OFFSET -8.27202 -0.0477905 -0.4584
                CHANNELS 3 Zrotation Xrotation Yrotation
                JOINT rPinky2
                {
                  OFFSET -1.82734 -0.647385 -0.700984
                  CHANNELS 3 Zrotation Xrotation Yrotation
                  End Site
                  {
                    OFFSET -1.69225 -0.51767 -0.607171
                  }
                }
              }
            }
          }
        }
      }
      JOINT lCollar
      {
        OFFSET 2.68224 19.2634 -4.8768
        CHANNELS 3 Zrotation Xrotation Yrotation
        JOINT lShldr
        {
          OFFSET 8.77824 -1.95073 1.46304
          CHANNELS 3 Zrotation Xrotation Yrotation
          JOINT lForeArm
          {
            OFFSET 28.1742 -1.7115 0.48768
            CHANNELS 3 Zrotation Xrotation Yrotation
            JOINT lHand
            {
              OFFSET 22.5879 0.773209 7.07136
              CHANNELS 3 Zrotation Xrotation Yrotation
              JOINT lThumb1
              {
                OFFSET 1.2192 -0.487915 3.41376
                CHANNELS 3 Zrotation Xrotation Yrotation
                JOINT lThumb2
                {
                  OFFSET 3.37035 -0.52449 3.41376
                  CHANNELS 3 Zrotation Xrotation Yrotation
                  End Site
                  {
                    OFFSET 1.78271 -1.18214 1.43049
                  }
                }
              }
              JOINT lIndex1
              {
                OFFSET 7.75947 0.938293 5.60832
                CHANNELS 3 Zrotation Xrotation Yrotation
                JOINT lIndex2
                {
                  OFFSET 2.54057 -0.884171 1.56538
                  CHANNELS 3 Zrotation Xrotation Yrotation
                  End Site
                  {
                    OFFSET 1.62519 -0.234802 1.16502
                  }
                }
              }
              JOINT lMid1
              {
                OFFSET 8.24714 1.18213 3.41376
                CHANNELS 3 Zrotation Xrotation Yrotation
                JOINT lMid2
                {
                  OFFSET 3.10165 -0.590103 1.0647
                  CHANNELS 3 Zrotation Xrotation Yrotation
                  End Site
                  {
                    OFFSET 2.48547 -0.328903 0.83742
                  }
                }
              }
              JOINT lRing1
              {
                OFFSET 8.82822 0.546677 1.51678
                CHANNELS 3 Zrotation Xrotation Yrotation
                JOINT lRing2
                {
                  OFFSET 2.60934 -0.819778 -0.0198488
                  CHANNELS 3 Zrotation Xrotation Yrotation
                  End Site
                  {
                    OFFSET 2.33842 -0.294052 0.168128
                  }
                }
              }
              JOINT lPinky1
              {
                OFFSET 8.27202 -0.0477905 -0.4584
                CHANNELS 3 Zrotation Xrotation Yrotation
                JOINT lPinky2
                {
                  OFFSET 1.82734 -0.647385 -0.700984
                  CHANNELS 3 Zrotation Xrotation Yrotation
                  End Site
                  {
                    OFFSET 1.69225 -0.51767 -0.607171
                  }
                }
              }
            }
          }
        }
      }
    }
  }
  JOINT rButtock
  {
    OFFSET -8.77824 4.35084 1.2192
    CHANNELS 3 Zrotation Xrotation Yrotation
    JOINT rThigh
    {
      OFFSET 0 -1.70687 -2.19456
      CHANNELS 3 Zrotation Xrotation Yrotation
      JOINT rShin
      {
        OFFSET 0 -36.8199 0.73152
        CHANNELS 3 Zrotation Xrotation Yrotation
        JOINT rFoot
        {
          OFFSET 0.73152 -45.1104 -5.12064
          CHANNELS 3 Zrotation Xrotation Yrotation
          End Site
          {
            OFFSET -1.1221 -3.69964 12.103
          }
        }
      }
    }
  }
  JOINT lButtock
  {
    OFFSET 8.77824 4.35084 1.2192
    CHANNELS 3 Zrotation Xrotation Yrotation
    JOINT lThigh
    {
      OFFSET 0 -1.70687 -2.19456
      CHANNELS 3 Zrotation Xrotation Yrotation
      JOINT lShin
      {
        OFFSET 0 -36.8199 0.73152
        CHANNELS 3 Zrotation Xrotation Yrotation
        JOINT lFoot
        {
          OFFSET -0.73152 -45.1104 -5.12064
          CHANNELS 3 Zrotation Xrotation Yrotation
          End Site
          {
            OFFSET 1.1221 -3.69964 12.103
          }
        }
      }
    }
  }
}
MOTION
Frames:	4
Frame Time:	0.03333
-5.0753 71.1644 4.1756 -32.12346 -69.650965 31.926352 7.31358 14.746821 -0.0 0.13196 -8.118671 14.786107 -9.495195 16.500973 -45.082409 31.67477 -11.194389 48.014914 -0.002125 0.0 -0.002598 0.004102 -0.0 -0.000257 4.238783 -44.742781 -8.647998 74.385898 43.430308 -41.450303 173.464329 -0.775766 64.860126 165.945998 -21.940425 143.556699 -68.05514 37.900087 35.359765 15.738773 -19.68588 19.052208 -10.679318 15.143728 6.941597 -157.509219 -5.190328 109.962859 -10.975971 25.789754 7.640665 9.941586 -20.345564 -1.526724 -145.111997 -0.668298 -178.917809 12.139501 48.567178 -3.343085 -74.132887 -51.745627 -72.618314 67.217042 84.928479 -28.068107 3.670922 17.551971 -4.528787 -82.432164 -22.133813 -32.765839 -7.772922 20.519392 -53.23968 9.849147 26.830018 -1.160034 91.845461 38.180783 -52.213786 145.288469 -26.524304 -79.559265 153.453771 -21.067346 -121.745112 171.100562 -34.981293 -117.745162 160.673319 -6.667933 -143.244765 -11.537461 -24.897392 1.139767 71.92644 72.973281 -89.772303 -5.865743 0.51263 4.402587 124.852137 -29.037611 122.620072 43.658775 -49.72359 44.910911 -0.001828 -0.001164 -0.000914 -3.035943 -2.324915 -112.501339 -53.047254 -19.496283 12.769025 118.06201 34.805144 -7.055597 -0.00048 0.000466 0.000617 66.273594 -53.056055 -109.355058 -12.051736 -78.138314 75.449136 4.840126 26.748017 84.647917
-5.1038 71.0533 4.186 -32.311376 -69.710002 32.262367 8.653713 13.919226 -32.320934 3.111559 -7.136172 47.163475 3.855544 12.69472 35.380586 -15.949607 -21.436476 -38.989142 0.00272 -0.0 -0.000535 -0.002977 -0.0 5e-06 -0.048986 0.29245 0.064518 59.56055 26.804445 1.622488 -178.518129 9.629453 64.887773 163.651865 -28.23104 141.840528 23.44729 -22.70619 1.156396 -5.852094 -3.735438 -11.190229 37.21718 -57.917365 -0.642431 40.041604 -35.703145 -1.554483 -0.570924 1.648432 0.321575 -4.711846 20.801489 4.256898 -75.672218 -72.117273 -92.828578 -85.884477 83.054251 103.783221 -146.226933 15.46948 -142.749183 65.747833 83.482145 -28.034332 -4.239274 -44.742791 8.647393 117.638109 13.985291 159.525449 -159.962176 -37.528157 142.082738 15.802971 40.081488 -4.20473 173.976838 -11.643147 -89.882131 0.869767 -55.048978 -6.590494 159.785826 -32.611221 -122.690858 158.064397 -12.157079 -119.48237 -23.903731 -61.333825 -1.401571 25.468002 49.134771 -20.806184 8.9e-05 0.022729 -0.006421 -3.148182 45.211143 -8.978456 26.565392 -38.860872 25.605328 23.848318 -41.26548 25.389777 0.000924 -0.000401 -0.001188 -2.917647 -1.349217 -65.203498 -55.88098 22.482762 -61.884499 171.937348 70.038958 -64.863274 0.0 -0.000331 0.000541 63.127795 -52.044485 58.020332 16.322925 82.463077 127.683197 110.272789 58.151729 164.475682
-5.1471 70.89020000000001 4.2334 -32.571378 -69.748667 32.604977 7.455869 13.9341 -1.501937 0.165127 -8.014046 16.496616 -11.099829 23.264348 -85.644265 38.040411 12.101174 82.262695 0.001484 0.0 0.001505 0.001174 -0.0 -0.00341 -159.221101 -48.028459 170.415159 -24.210302 21.550845 -23.714839 35.145036 -47.136095 -91.508817 171.272584 -9.814912 145.313237 -90.496073 38.312903 51.260865 -155.692448 -31.907025 80.121807 -14.229758 19.202999 9.559983 -168.21726 -19.834145 109.953514 68.981305 -80.154914 40.574474 -28.059832 50.960483 23.132435 -145.120583 0.309666 -179.226602 -16.095896 -68.331191 -37.218495 -156.38147 53.73421 -150.118243 -10.108686 -23.303519 -11.734244 -4.239677 -44.742726 8.64779 55.556086 -61.574243 118.378422 133.740246 19.937959 151.927291 -4.8701 -17.682892 -0.747306 166.630603 -4.305223 -89.771273 77.342587 3.304323 -27.08095 162.783922 -37.706773 -122.639145 -96.442474 -70.36735 -41.381167 -89.03502 -81.393406 -59.758966 -91.968169 -78.379367 -63.169434 0.020366 -1.724352 0.541925 -11.426855 -18.406858 2.246391 23.389649 -36.350315 22.491882 146.291598 10.510568 143.139743 -179.99933 75.750917 -0.001404 164.32349 74.588752 34.260595 21.411362 48.14517 -101.442848 97.669821 19.483818 10.303443 0.006164 0.000359 0.006164 63.156556 -52.17572 68.210603 47.31525 68.976582 22.127259 -161.131776 -24.907946 64.434992
-5.2309 70.6649 4.2608 -32.556881 -69.589845 32.664834 9.822771 10.471689 -111.368878 5.272913 -0.421466 126.060672 8.311443 15.94502 65.588048 -28.49938 -7.792341 -68.250124 -0.002584 0.0 -0.000535 -0.002881 0.0 -0.005444 -153.05002 10.023342 158.667804 128.91978 -32.308812 153.808194 -13.728014 -20.164977 76.015875 -3.329381 14.317804 0.472007 -3.229607 3.154625 0.582215 -59.264907 27.39008 54.971194 -4.708003 7.223761 2.8542 -66.201399 48.3638 50.343958 -39.290986 53.365391 32.878496 -163.090238 -4.759178 143.246152 0.00029 0.0636 0.021183 -155.429038 -1.299829 172.005756 -103.68722 -45.141554 -101.854434 -3.908326 -16.144263 -7.422425 147.865369 28.559889 -152.689984 -70.858127 -69.142748 -115.477232 -169.756515 72.78796 -103.715967 -171.127008 -17.949165 -143.504129 169.319395 -7.001069 -89.921391 168.734236 -7.430861 -87.833851 -24.07786 -42.305891 5.558016 29.479213 43.525792 -23.89553 160.82643 -7.141833 -143.316108 163.780987 -6.246114 -143.1121 71.925882 72.973579 -89.772131 -5.867056 0.512652 4.404911 26.563397 -38.8607 25.606756 -2.079001 -3.034242 1.270788 0.000556 0.001905 -0.000715 -2.346727 -1.521062 -96.571191 -47.02043 -0.830512 96.640848 171.333591 -18.218288 48.0935 -179.982507 75.749372 -0.011969 -147.704379 2.954765 87.980087 79.573526 -5.795469 0.16213 -9.80202 -1.534394 -88.845355
